<svg width="430" height="913" viewBox="0 0 430 913" fill="none" xmlns="http://www.w3.org/2000/svg">
<path d="M-1258.36 -141.772C-1186.71 -93.4451 -1123.09 -31.0352 -1070.56 42.4585C-946.83 217.106 -962.206 354.42 -891.932 376.664C-783.341 411.024 -716.374 92.5719 -489.18 44.5205C-322.546 9.25273 -151.474 136.815 -111.877 166.37C42.6002 281.537 64.1071 407.566 174.145 412.065C254.64 415.453 277.794 349.493 403.375 322.769C490.801 304.167 567.596 317.373 619.405 331.696" stroke="#EACFFB" stroke-opacity="0.3" stroke-width="5" stroke-miterlimit="10"/>
<path d="M-1258.15 -126.736C-1186.5 -78.3936 -1122.87 -15.9747 -1070.32 57.5241C-946.586 232.203 -961.965 369.486 -891.72 391.732C-783.1 426.09 -716.133 107.637 -488.968 59.5883C-322.302 24.3504 -151.23 151.913 -111.636 181.436C42.8411 296.602 64.3197 422.633 174.386 427.13C254.881 430.518 278.007 364.561 403.616 337.834C491.07 319.23 567.837 332.439 619.646 346.761" stroke="#EACFFB" stroke-opacity="0.3" stroke-width="5" stroke-miterlimit="10"/>
<path d="M-1257.94 -111.701C-1186.28 -63.3681 -1122.65 -0.947789 -1070.11 72.5598C-946.376 247.239 -961.755 384.521 -891.481 406.765C-782.975 441.132 -715.895 122.671 -488.73 74.6218C-322.092 39.3861 -151.02 166.949 -111.426 196.471C43.0537 311.67 64.558 437.667 174.596 442.166C255.091 445.554 278.243 379.562 403.824 352.838C491.277 334.234 568.044 347.442 619.853 361.765" stroke="#EACFFB" stroke-opacity="0.3" stroke-width="5" stroke-miterlimit="10"/>
<path d="M-1257.68 -96.6692C-1186.03 -48.3134 -1122.41 14.117 -1069.87 87.6254C-946.137 262.305 -961.516 399.587 -891.27 421.833C-782.651 456.191 -715.684 137.739 -488.518 89.6896C-321.853 54.4518 -150.781 182.014 -111.186 211.537C43.293 326.736 64.7692 452.735 174.836 457.232C255.331 460.62 278.454 394.63 404.063 367.903C491.517 349.3 568.284 362.508 620.093 376.83" stroke="#EACFFB" stroke-opacity="0.3" stroke-width="5" stroke-miterlimit="10"/>
<path d="M-1257.5 -81.6317C-1185.84 -33.289 -1122.21 29.1298 -1069.66 102.629C-945.902 277.306 -961.306 414.622 -891.035 436.834C-782.444 471.194 -715.449 152.74 -488.283 104.691C-321.618 69.4528 -150.574 197.017 -110.951 226.538C43.4999 341.739 65.0043 467.736 175.043 472.235C255.538 475.623 278.689 409.631 404.27 382.907C491.723 364.303 568.493 377.543 620.3 391.834" stroke="#EACFFB" stroke-opacity="0.3" stroke-width="5" stroke-miterlimit="10"/>
<path d="M-1257.26 -66.5982C-1185.61 -18.2464 -1121.98 44.171 -1069.42 117.662C-945.691 292.341 -961.067 429.656 -890.824 451.87C-782.29 486.234 -715.238 167.775 -488.054 119.596C-321.417 84.36 -150.345 211.922 -110.751 241.445C43.7288 356.644 65.2049 482.643 175.272 487.14C255.766 490.528 278.89 424.538 404.499 397.812C491.952 379.208 568.722 392.448 620.557 406.736" stroke="#EACFFB" stroke-opacity="0.3" stroke-width="5" stroke-miterlimit="10"/>
<path d="M-1256.99 -51.535C-1185.34 -3.17639 -1121.73 59.2672 -1069.21 132.794C-945.448 307.471 -960.853 444.788 -890.581 466.999C-781.988 501.391 -714.992 182.937 -487.827 134.888C-321.164 99.618 -150.12 227.183 -110.497 256.703C43.9537 371.904 65.4581 497.901 175.496 502.4C255.991 505.788 279.143 439.796 404.724 413.072C492.18 394.5 568.947 407.709 620.754 421.999" stroke="#EACFFB" stroke-opacity="0.3" stroke-width="5" stroke-miterlimit="10"/>
<path d="M-1256.82 -36.6291C-1185.16 11.7033 -1121.52 74.1236 -1068.98 147.631C-945.255 322.278 -960.632 459.593 -890.386 481.839C-781.767 516.197 -714.8 197.745 -487.606 149.693C-320.971 114.425 -149.899 241.988 -110.302 271.543C44.1748 386.709 65.651 512.708 175.72 517.237C256.215 520.625 279.367 454.633 404.95 427.941C492.375 409.34 569.142 422.548 620.979 436.868" stroke="#EACFFB" stroke-opacity="0.3" stroke-width="5" stroke-miterlimit="10"/>
<path d="M-1256.6 -21.4677C-1184.93 26.8718 -1121.29 89.2899 -1068.74 162.79C-945.008 337.438 -960.413 474.754 -890.139 496.998C-781.605 531.363 -714.553 212.904 -487.395 164.758C-320.732 129.488 -149.688 257.053 -110.063 286.606C44.3858 401.775 65.8928 527.804 175.931 532.302C256.426 535.69 279.58 469.731 405.161 443.007C492.614 424.403 569.382 437.611 621.191 451.933" stroke="#EACFFB" stroke-opacity="0.3" stroke-width="5" stroke-miterlimit="10"/>
<path d="M-1256.31 -6.43854C-1184.66 41.9491 -1121.04 104.413 -1068.52 177.955C-944.786 352.634 -960.165 489.916 -889.891 512.16C-781.301 546.52 -714.333 228.068 -487.14 180.017C-320.505 144.749 -149.433 272.311 -109.836 301.866C44.6411 417.033 66.1197 543.064 176.186 547.561C256.681 550.949 279.835 484.989 405.416 458.265C492.842 439.663 569.609 452.871 621.446 467.192" stroke="#EACFFB" stroke-opacity="0.3" stroke-width="5" stroke-miterlimit="10"/>
<path d="M-1256.13 8.53668C-1184.48 56.8884 -1120.85 119.306 -1068.29 192.797C-944.562 367.476 -959.941 504.759 -889.696 527.005C-781.105 561.365 -714.109 242.91 -486.944 194.861C-320.278 159.623 -149.234 287.188 -109.612 316.709C44.8368 431.877 66.3438 557.906 176.41 562.403C256.877 565.793 280.031 499.834 405.64 473.107C493.094 454.503 569.861 467.712 621.67 482.034" stroke="#EACFFB" stroke-opacity="0.3" stroke-width="5" stroke-miterlimit="10"/>
<path d="M-1255.92 23.6352C-1184.26 71.9778 -1120.63 134.397 -1068.08 207.895C-944.35 382.575 -959.729 519.857 -889.455 542.101C-780.864 576.461 -713.897 258.009 -486.703 209.957C-320.066 174.722 -148.994 302.284 -109.4 331.807C45.0798 447.006 66.556 573.005 176.623 577.502C257.117 580.89 280.269 514.898 405.85 488.174C493.275 469.572 570.042 482.78 621.88 497.101" stroke="#EACFFB" stroke-opacity="0.3" stroke-width="5" stroke-miterlimit="10"/>
<path d="M-1255.62 38.6641C-1183.98 87.025 -1120.35 149.441 -1067.79 222.924C-944.055 397.604 -959.433 534.886 -889.188 557.132C-780.656 591.464 -713.612 272.909 -486.493 224.993C-319.827 189.755 -148.783 317.32 -109.161 346.84C45.2906 462.041 66.795 588.038 176.862 592.535C257.328 595.925 280.48 529.933 406.089 503.207C493.543 484.603 570.312 497.844 622.119 512.134" stroke="#EACFFB" stroke-opacity="0.3" stroke-width="5" stroke-miterlimit="10"/>
<path d="M-1255.47 53.7043C-1183.81 102.047 -1120.18 164.466 -1067.63 237.965C-943.902 412.644 -959.279 549.958 -889.007 572.17C-780.417 606.53 -713.449 288.078 -486.256 240.027C-319.618 204.791 -148.546 332.353 -108.98 361.878C45.4992 477.077 66.9753 603.076 177.042 607.573C257.537 610.961 280.688 544.969 406.269 518.245C493.695 499.643 570.464 512.884 622.299 527.172" stroke="#EACFFB" stroke-opacity="0.3" stroke-width="5" stroke-miterlimit="10"/>
<path d="M-1255.23 68.7379C-1183.58 117.09 -1119.95 179.507 -1067.4 252.998C-943.665 427.678 -959.041 564.992 -888.798 587.206C-780.235 621.568 -713.212 303.112 -486.044 255.095C-319.378 219.857 -148.334 347.421 -108.712 376.942C45.7394 492.143 67.2438 618.14 177.31 622.636C257.777 626.027 280.929 560.035 406.538 533.308C493.994 514.737 570.761 527.945 622.567 542.235" stroke="#EACFFB" stroke-opacity="0.3" stroke-width="5" stroke-miterlimit="10"/>
<path d="M-1254.93 83.7982C-1183.26 132.122 -1119.63 194.544 -1067.1 268.058C-943.369 442.706 -958.746 580.02 -888.474 602.232C-779.966 636.631 -712.921 318.076 -485.805 270.127C-319.17 234.859 -148.098 362.422 -108.504 391.945C45.9758 507.143 67.4519 633.142 177.518 637.639C258.013 641.027 281.165 575.035 406.746 548.311C494.174 529.742 570.941 542.95 622.776 557.238" stroke="#EACFFB" stroke-opacity="0.3" stroke-width="5" stroke-miterlimit="10"/>
<path d="M-1254.78 98.8697C-1183.12 147.202 -1119.48 209.622 -1066.94 283.13C-943.215 457.777 -958.591 595.092 -888.346 617.337C-779.755 651.698 -712.759 333.243 -485.594 285.194C-318.931 249.924 -147.887 377.489 -108.262 407.042C46.1869 522.21 67.6938 648.239 177.76 652.736C258.255 656.124 281.381 590.167 406.99 563.44C494.444 544.836 571.211 558.045 623.02 572.367" stroke="#EACFFB" stroke-opacity="0.3" stroke-width="5" stroke-miterlimit="10"/>
<path d="M-1254.57 113.874C-1182.91 162.207 -1119.28 224.627 -1066.74 298.134C-943.009 472.782 -958.385 610.096 -888.111 632.34C-779.548 666.702 -712.553 348.248 -485.354 300.261C-318.719 264.993 -147.647 392.555 -108.05 422.11C46.4265 537.277 67.9051 663.308 177.972 667.805C258.467 671.193 281.621 605.233 407.201 578.509C494.627 559.907 571.394 573.116 623.231 587.436" stroke="#EACFFB" stroke-opacity="0.3" stroke-width="5" stroke-miterlimit="10"/>
<path d="M-1254.25 128.901C-1182.59 177.244 -1118.96 239.662 -1066.41 313.161C-942.683 487.841 -958.062 625.123 -887.816 647.369C-779.305 681.8 -712.232 363.243 -485.149 315.232C-318.484 279.994 -147.412 407.557 -107.817 437.08C46.6314 552.248 68.1383 678.277 178.205 682.774C258.7 686.162 281.826 620.205 407.435 593.478C494.888 574.874 571.655 588.083 623.465 602.405" stroke="#EACFFB" stroke-opacity="0.3" stroke-width="5" stroke-miterlimit="10"/>
<path d="M-1254.12 144.037C-1182.45 192.37 -1118.82 254.79 -1066.28 328.297C-942.55 502.977 -957.929 640.259 -887.655 662.503C-779.064 696.863 -712.097 378.411 -484.903 330.359C-318.273 295.027 -147.201 422.59 -107.607 452.113C46.8728 567.312 68.3488 693.311 178.415 697.807C258.91 701.195 282.062 635.203 407.643 608.479C495.068 589.878 571.835 603.086 623.673 617.406" stroke="#EACFFB" stroke-opacity="0.3" stroke-width="5" stroke-miterlimit="10"/>
<path d="M-1253.89 158.977C-1182.23 207.319 -1118.6 269.738 -1066.05 343.237C-942.321 517.916 -957.7 655.198 -887.454 677.444C-778.863 711.805 -711.868 393.35 -484.692 345.429C-318.027 310.192 -146.954 437.754 -107.36 467.277C47.091 582.478 68.5954 708.475 178.662 712.971C259.157 716.359 282.28 650.37 407.889 623.643C495.343 605.04 572.11 618.248 623.919 632.57" stroke="#EACFFB" stroke-opacity="0.3" stroke-width="5" stroke-miterlimit="10"/>
<path d="M-1253.56 174.003C-1181.91 222.346 -1118.28 284.765 -1065.73 358.264C-941.998 532.943 -957.374 670.257 -887.103 692.469C-778.615 726.966 -711.542 408.409 -484.464 360.334C-317.827 325.099 -146.755 452.661 -107.16 482.184C47.3192 597.383 68.7954 723.382 178.862 727.878C259.357 731.266 282.509 665.275 408.089 638.551C495.515 619.949 572.312 633.187 624.119 647.478" stroke="#EACFFB" stroke-opacity="0.3" stroke-width="5" stroke-miterlimit="10"/>
<path d="M-1253.43 189.203C-1181.77 237.555 -1118.15 299.972 -1065.59 373.463C-941.859 548.143 -957.236 685.457 -886.993 707.671C-778.402 742.031 -711.406 423.577 -484.241 375.527C-317.588 340.129 -146.516 467.691 -106.922 497.214C47.558 612.413 69.034 738.412 179.101 742.909C259.596 746.297 282.719 680.307 408.328 653.581C495.782 634.977 572.551 648.217 624.358 662.508" stroke="#EACFFB" stroke-opacity="0.3" stroke-width="5" stroke-miterlimit="10"/>
<path d="M-1253.23 204.113C-1181.57 252.436 -1117.94 314.845 -1065.39 388.341C-941.663 563.02 -957.039 700.335 -886.768 722.546C-778.175 756.939 -711.208 438.486 -484.016 390.403C-317.379 355.167 -146.307 482.73 -106.713 512.253C47.7668 627.451 69.2712 753.448 179.31 757.947C259.804 761.335 282.956 695.343 408.537 668.619C495.965 650.05 572.76 663.256 624.567 677.546" stroke="#EACFFB" stroke-opacity="0.3" stroke-width="5" stroke-miterlimit="10"/>
<path d="M-1252.88 219.132C-1181.21 267.464 -1117.58 329.884 -1065.04 403.392C-941.313 578.039 -956.689 715.353 -886.444 737.599C-777.925 772.127 -710.852 453.569 -483.805 405.465C-317.142 370.195 -146.07 497.757 -106.473 527.312C48.004 642.479 69.4802 768.478 179.549 773.007C260.044 776.395 283.168 710.405 408.779 683.711C496.233 665.107 573 678.315 624.809 692.638" stroke="#EACFFB" stroke-opacity="0.3" stroke-width="5" stroke-miterlimit="10"/>
<path d="M-1252.78 234.176C-1181.12 282.508 -1117.49 344.929 -1064.94 418.436C-941.216 593.084 -956.592 730.398 -886.318 752.642C-777.728 787.002 -710.732 468.548 -483.567 420.498C-316.932 385.231 -145.867 512.697 -106.235 542.346C48.2141 657.515 69.721 783.544 179.759 788.042C260.254 791.431 283.408 725.471 408.989 698.746C496.443 680.143 573.21 693.351 625.019 707.673" stroke="#EACFFB" stroke-opacity="0.3" stroke-width="5" stroke-miterlimit="10"/>
<path d="M-1252.54 249.21C-1180.89 297.552 -1117.26 359.971 -1064.71 433.47C-940.976 608.149 -956.355 745.432 -886.109 767.677C-777.49 802.035 -710.523 483.583 -483.357 435.534C-316.694 400.264 -145.622 527.827 -106.025 557.382C48.4517 672.548 69.9303 798.579 179.997 803.076C260.492 806.464 283.618 740.506 409.227 713.78C496.68 695.176 573.447 708.385 625.257 722.707" stroke="#EACFFB" stroke-opacity="0.3" stroke-width="5" stroke-miterlimit="10"/>
</svg>
